# xmcd
#
# Track frame offsets: 
#        150
#        15826
#        30227
#        43875
#        59550
#        83925
#        97500
#        119250
#        137100
#        152400
#        167025
#        182475
#        201975
#
# Disc length: 2930 seconds
#
# Revision: 0
# Processed by: cddbd v1.5.2PL0 Copyright (c) Steve Scherf et al.
# Submitted via: ExactAudioCopy v0.99pb4
#
DISCID=990b700d
DTITLE=Kristin Shey - Soulshaker
DYEAR=2011
DGENRE=Soul
TTITLE0=Marvellous
TTITLE1=Guess
TTITLE2=Gotta go
TTITLE3=Cruise
TTITLE4=Waiting for someone
TTITLE5=Business perverter
TTITLE6=Refugee
TTITLE7=Soulshaker
TTITLE8=Dont you cry
TTITLE9=Show your face
TTITLE10=That stuff
TTITLE11=What you gave me
TTITLE12=All I need
EXTD=
EXTT0=
EXTT1=
EXTT2=
EXTT3=
EXTT4=
EXTT5=
EXTT6=
EXTT7=
EXTT8=
EXTT9=
EXTT10=
EXTT11=
EXTT12=
PLAYORDER=
